# xmcd
#
# Track frame offsets:
#	150
#	24656
#	49041
#	72732
#	93225
#	117085
#	140421
#	167410
#	188489
#	211634
#
# Disc length: 3063 seconds
#
# Revision: 1
# Processed by: cddbd v1.5.2PL0 Copyright (c) Steve Scherf et al.
# Submitted via: EZCDAudioConverter 8.0.2.1
#
DISCID=7f0bf50a
DTITLE=Diệu Hiền - Chờ Người
DYEAR=2011
DGENRE=World Pop
TTITLE0=Diệu Hiền - Tóc mây
TTITLE1=Diệu Hiền - Xóm đêm
TTITLE2=Diệu Hiền - Em hãy ngủ đi
TTITLE3=Diệu Hiền - Tình khúc thngs sáu
TTITLE4=Diệu Hiền, Xuân Trường - Chờ Người
TTITLE5=Diệu Hiền - Ngàn thu áo tím
TTITLE6=Diệu Hiền - Một mình
TTITLE7=Diệu Hiền - Nắng hạ
TTITLE8=Diệu Hiền - Hành hương trên đồi cao
TTITLE9=Diệu Hiền - Giọt nước mắt ngà
EXTD=
EXTT0=
EXTT1=
EXTT2=
EXTT3=
EXTT4=
EXTT5=
EXTT6=
EXTT7=
EXTT8=
EXTT9=
PLAYORDER=
